<svg id="Layer_1" data-name="Layer 1" xmlns="http://www.w3.org/2000/svg" viewBox="0 0 1200 214.49"><defs><style>.cls-1{fill:#a51e36;}</style></defs><title>drurylogo</title><path class="cls-1" d="M172.69,86.22c-4-28.89-30.15-45.46-51-47.58a266.82,266.82,0,0,0-32-1.14l0-3.64h-34s-.51,2.73,1.87,3.42a5.67,5.67,0,0,1,4.3,5.45C21.94,55,21.84,85,23.72,95.92c3.72,21.67,23.56,27.56,38.1,29.53v25.29c0,6.79-1.82,10.89-5.66,11.56C53.48,162.76,54,166,54,166h47.82c60.81,0,75.44-46.67,70.83-79.75ZM61.82,119c-20.61-1.9-28-14.89-29.48-23.46C30.83,86.77,30.63,63,61.82,52v67Zm39.52,32.8H89.77l0-28.8c13.2-8,23.53-21.51,21.47-33.51-.67-3.91-2.53-5.49-4.73-5.49s-4,1.78-3.67,3.69,1.3,3.8,1.65,5.82c.74,4.34-4.64,14.58-14.73,20.85l-.07-67.92c39.05,0,51.39,21.2,54.53,41,4.74,29.83-8.34,64.35-42.85,64.35Z"/><path class="cls-1" d="M567.14,61.22H540.5s-2.93,16.39-16.3,41.28L502.44,61.22H470.29l1.12,5.17c1.08.41,3.33-.12,6.4,4l27.64,47L505.27,166h26.84l.25-46.24S562,68,566.92,65l.22-3.81Z"/><path class="cls-1" d="M242.82,117.92s21.28-7.76,21.28-28.27c0-20.87-19-28.42-36-28.42H183.07l1.13,5.2c1.61.46,5.16,1.83,5.23,8.35L189.28,166h26.51l0-44h1.65l20.87,32.74c7.53,11.07,11.67,15.69,38.33,11.13a22.88,22.88,0,0,0-1-4.52c-13.49-11.49-32.81-43.48-32.81-43.48Zm-2.21-32.08c3.78,19.09-14.57,25.47-24.93,23V73.32s21.58-4.45,24.93,12.52Z"/><path class="cls-1" d="M446,117.92s21.28-7.76,21.28-28.27c0-20.87-18.95-28.42-36-28.42H386.24l1.13,5.2c1.61.46,5.17,1.83,5.23,8.35L392.44,166H419l0-44h1.64l20.88,32.74c7.53,11.07,11.67,15.69,38.33,11.13a22.44,22.44,0,0,0-1-4.52C465.31,149.91,446,117.92,446,117.92Zm-2.21-32.08c3.78,19.09-14.57,25.47-24.93,23V73.32s21.58-4.45,24.93,12.52Z"/><path class="cls-1" d="M347.88,61.1l0,56.35c0,23.77-6.62,33.93-19.42,34h-.15l-2.31,0c-10.27,0-18.7-7.83-18.7-33.93l0-56.35H274.43l1.14,5.21c3,.6,5.09,2.74,5.09,7.9,0,6,0,43.87,0,43.87,0,46.78,32.46,49.71,41.53,49.71h7.75c9.07,0,41.52-5,41.52-49.71,0,0-.06-51.45,0-57Z"/><polygon class="cls-1" points="616.44 60.9 631.61 60.9 631.61 105 689.32 105 689.32 60.9 704.49 60.9 704.49 166.34 689.32 166.34 689.32 118.6 631.61 118.6 631.61 166.34 616.44 166.34 616.44 60.9 616.44 60.9"/><path class="cls-1" d="M773,169a51.67,51.67,0,0,1-21.19-4.35,53.92,53.92,0,0,1-17.07-11.85,54.64,54.64,0,0,1-11.38-17.63,56.81,56.81,0,0,1-4.11-21.66A56.22,56.22,0,0,1,723.37,92a55.47,55.47,0,0,1,11.3-17.55,52.93,52.93,0,0,1,17.07-11.85,54.15,54.15,0,0,1,42.53,0,53.93,53.93,0,0,1,17.15,11.85A55,55,0,0,1,822.81,92a56.59,56.59,0,0,1,4.1,21.58,57.18,57.18,0,0,1-4.1,21.66,54.83,54.83,0,0,1-11.39,17.63,53.93,53.93,0,0,1-17.15,11.85A52.2,52.2,0,0,1,773,169Zm0-14.23a36,36,0,0,0,27.74-12.33,40.77,40.77,0,0,0,7.67-13.2,46.85,46.85,0,0,0,2.69-15.89,47.35,47.35,0,0,0-2.69-16,40.88,40.88,0,0,0-7.67-13.2,35.62,35.62,0,0,0-12-8.93A37.34,37.34,0,0,0,773,72a36.82,36.82,0,0,0-15.66,3.24,35.81,35.81,0,0,0-11.93,8.93,40.7,40.7,0,0,0-7.67,13.2,47.35,47.35,0,0,0-2.69,16,46.85,46.85,0,0,0,2.69,15.89,40.59,40.59,0,0,0,7.67,13.2,36.72,36.72,0,0,0,11.93,9A36,36,0,0,0,773,154.8Z"/><polygon class="cls-1" points="864.32 74.18 829.04 74.18 829.04 60.9 914.62 60.9 914.62 74.18 879.5 74.18 879.5 166.34 864.32 166.34 864.32 74.18 864.32 74.18"/><polygon class="cls-1" points="931.27 60.9 997.67 60.9 997.67 74.33 946.45 74.33 946.45 105 985.03 105 985.03 118.6 946.45 118.6 946.45 152.75 1001.47 152.75 1001.47 166.34 931.27 166.34 931.27 60.9 931.27 60.9"/><polygon class="cls-1" points="1017.93 60.9 1033.11 60.9 1033.11 152.9 1077.94 152.9 1077.94 166.34 1017.93 166.34 1017.93 60.9 1017.93 60.9"/><path class="cls-1" d="M1096.87,140.73q2.2,2.53,5,5.14a34.74,34.74,0,0,0,6.24,4.66,34.16,34.16,0,0,0,7.75,3.32,32.41,32.41,0,0,0,9.32,1.27q10.44,0,16.29-4.75a15.62,15.62,0,0,0,5.85-12.8q0-8.7-6.65-13t-19.12-7a58.65,58.65,0,0,1-12.33-3.95,35.26,35.26,0,0,1-9.57-6.33,26.91,26.91,0,0,1-6.24-8.77,27.46,27.46,0,0,1-2.21-11.3,28,28,0,0,1,2.21-11.07A25.57,25.57,0,0,1,1100,66.9a33.16,33.16,0,0,1,11.07-6.32,45.46,45.46,0,0,1,15.33-2.37,47.38,47.38,0,0,1,13.36,1.66,41.52,41.52,0,0,1,9.56,4,29.58,29.58,0,0,1,6.33,4.9c1.57,1.69,2.79,3.06,3.63,4.11l-10.11,9.33c-.64-.74-1.59-1.72-2.85-2.92a26,26,0,0,0-4.82-3.56,31.07,31.07,0,0,0-6.8-2.93,30.59,30.59,0,0,0-8.94-1.18A25.23,25.23,0,0,0,1117.1,73a18.4,18.4,0,0,0-6,3.47,13.17,13.17,0,0,0-3.48,4.83,14,14,0,0,0-1.11,5.37,12.78,12.78,0,0,0,1.66,6.72,15.58,15.58,0,0,0,4.82,4.9,31.09,31.09,0,0,0,7.82,3.64q4.67,1.5,10.68,2.93a81,81,0,0,1,11.46,3.71,35.6,35.6,0,0,1,10,6.16,28.5,28.5,0,0,1,7,9.49,32.29,32.29,0,0,1,2.61,13.68,27.57,27.57,0,0,1-2.84,12.48,30.66,30.66,0,0,1-7.83,9.88,35.64,35.64,0,0,1-11.78,6.48,45.66,45.66,0,0,1-14.7,2.3,49.16,49.16,0,0,1-13.52-1.74,54.32,54.32,0,0,1-11.06-4.43,47.51,47.51,0,0,1-8.7-5.92,42.52,42.52,0,0,1-6.08-6.41l10.75-9.8Z"/><path class="cls-1" d="M1179.56,159.6a6.84,6.84,0,1,1-6.81-6.65,6.68,6.68,0,0,1,6.81,6.65Zm-12,0a5.15,5.15,0,0,0,5.19,5.32,5.09,5.09,0,0,0,5.07-5.27,5.13,5.13,0,1,0-10.26-.05Zm4.09,3.5h-1.54v-6.66a13.69,13.69,0,0,1,2.56-.2,4.08,4.08,0,0,1,2.31.49,1.85,1.85,0,0,1,.65,1.46,1.7,1.7,0,0,1-1.38,1.54v.08a2,2,0,0,1,1.22,1.62,5.31,5.31,0,0,0,.48,1.67h-1.66a6.2,6.2,0,0,1-.53-1.63c-.12-.73-.53-1.05-1.38-1.05h-.73v2.68Zm0-3.78h.73c.85,0,1.55-.28,1.55-1s-.45-1-1.42-1a4,4,0,0,0-.86.07v1.91Z"/></svg>